<?xml version="1.0" encoding="UTF-8"?>
<svg id="_圖層_1" data-name="圖層 1" xmlns="http://www.w3.org/2000/svg" viewBox="0 0 3796.18 3008.29">
  <defs>
    <style>
      .cls-1 {
        stroke-width: 3px;
      }

      .cls-1, .cls-2, .cls-3, .cls-4 {
        fill: none;
      }

      .cls-1, .cls-2, .cls-3, .cls-4, .cls-5 {
        stroke-linecap: round;
      }

      .cls-1, .cls-2, .cls-4, .cls-5 {
        stroke-miterlimit: 10;
      }

      .cls-1, .cls-4 {
        stroke: #161616;
      }

      .cls-2 {
        stroke-width: 6px;
      }

      .cls-2, .cls-5 {
        stroke: #050505;
      }

      .cls-3 {
        stroke: #375baa;
        stroke-linejoin: round;
        stroke-width: 10px;
      }

      .cls-4 {
        stroke-width: 4px;
      }

      .cls-5 {
        stroke-width: 5px;
      }

      .cls-5, .cls-6 {
        fill: #f2dec2;
      }

      .cls-7, .cls-6, .cls-8, .cls-9, .cls-10, .cls-11, .cls-12, .cls-13, .cls-14, .cls-15, .cls-16, .cls-17, .cls-18, .cls-19, .cls-20, .cls-21, .cls-22, .cls-23, .cls-24, .cls-25, .cls-26, .cls-27, .cls-28 {
        stroke-width: 0px;
      }

      .cls-8 {
        fill: #f2de8b;
      }

      .cls-9 {
        fill: #623335;
      }

      .cls-10 {
        fill: #6286f9;
      }

      .cls-11 {
        fill: #375baa;
      }

      .cls-12 {
        fill: #2e212b;
      }

      .cls-13 {
        fill: #0c0c0c;
      }

      .cls-14 {
        fill: #161616;
      }

      .cls-15 {
        fill: #c4ad4d;
      }

      .cls-16 {
        fill: #d3443d;
      }

      .cls-17 {
        fill: #e0c5a4;
      }

      .cls-18 {
        fill: #ad6c1e;
      }

      .cls-19 {
        fill: #8fa7e5;
      }

      .cls-20 {
        fill: #b76b64;
      }

      .cls-21 {
        fill: #333332;
      }

      .cls-22 {
        fill: #ff5fc2;
      }

      .cls-23 {
        fill: #665039;
      }

      .cls-24 {
        fill: #fff;
      }

      .cls-25 {
        fill: #e8c9aa;
      }

      .cls-26 {
        fill: #f77a78;
      }

      .cls-27 {
        fill: #050505;
      }

      .cls-28 {
        fill: #020202;
      }
    </style>
  </defs>
  <path id="hair" class="cls-28" d="m2177.09,430.88s87.61-267.51,369.9-186.86c282.28,80.65,356.21,346.41,241.96,576.47-114.26,230.05-43.69,300.62,26.88,381.28,70.57,80.65,124.34,221.79,53.77,339.41-70.57,117.62-154.58,211.71-154.58,211.71l-302.45,43.69-406.74-134.42-46.93-107.54s73.93-36.97,0-184.83-.54-171.39-40.59-245.32c-40.06-73.93-87.4-328.29-75.49-439.71,11.91-111.41,33.42-371.06,242.58-390.34s286.43,114.26,286.43,114.26l-194.73,22.19Z"/>
  <path class="cls-6" d="m2143.57,1386.2c-28.27,54.41-42.96.25-90.89,38.49,101.53,49.31,242.57,78.95,347.52,37.43-8.28-24.8-33.61-25.13-41.7-54.53-20.32-73.78-32.08-150.77-29.94-240.59-46.18,15.97-177.39,30.96-173.23,85.54,4.11,53.93,17.1,80.27-11.76,133.66Z"/>
  <g id="shadow">
    <path id="_face_" data-name="&amp;lt;face&amp;gt;" class="cls-6" d="m1945.18,1207.47c54.06,39.52,129.88,66.95,196.55,73.32,219.71,20.98,478.17-160.11,516.33-377.5,38.16-217.39-175.39-359.45-389.11-414.55-72.99-18.81-151.48-68.73-219.54-36.34-117.81,56.06-230.21,206.94-205.61,328.77,28.22,139.78-84.25,290.58,101.38,426.3Z"/>
    <path id="shadow-2" data-name="shadow" class="cls-17" d="m2283.98,1170.88c-6.75,22.99-25.37,42.14-48.15,49.55-20.07,6.53-50.76,4.78-66.61-10.99,8.88-3.36,20.01-3.74,29.44-5.95s19.56-5.06,29.15-8.23c19.4-6.42,38.23-14.58,56.16-24.38Z"/>
    <path class="cls-17" d="m2028.67,546.41c25.61-14.78,62.8-2.74,74.9,24.24,20.43-15.05,41.79-30.44,66.69-35.33s54.41,3.91,65.5,26.73c6.92,14.24,5.61,30.96,3.55,46.66s-4.66,31.98.05,47.1c4.71,15.12,19.46,28.49,35.04,25.66,20.86-3.79,27.16-30.47,27.16-51.67,0-35.18-5.05-71.19-21.64-102.22-16.59-31.03-46.13-56.5-80.92-61.71s-73.57,13.58-85.57,46.65c-12.66-29.68-51.54-42.1-82.11-31.78-30.58,10.32-52.53,38.36-63.57,68.69-11.04,30.32-12.65,62.83-14.45,94.73,23.97,8.62,32.77-12.48,38.22-31.39,7.2-24.99,12.65-52.23,37.15-66.38Z"/>
    <path class="cls-17" d="m2344.82,874.26c2.08,11.8,131.11,86.65,197.74,82.03,16.23,51.83,18.88,68.45,35.1,120.29,9.34-14.51,35.94-23.2,32.8-37.89-10.14-47.51-20.28-95.02-30.42-142.53-116.8,4.62-250.69-109.51-235.23-21.89Z"/>
    <path class="cls-17" d="m2070.14,1024.19c-5.17,9.08-12.2,23.49-10.72,33.84s8.01,17.38,17.89,20.77c6.62,2.27,14.7.88,20.97-2.23-5.57-1.32-16.04.51-21.1-2.16s-9.56-6.86-11.39-12.28c-2.55-7.59.49-15.8,3.5-23.23,5.18-12.79,27.55-40.89,30.51-54.17-9.06,6.82-24.13,29.7-29.67,39.46Z"/>
    <path id="shadow-3" data-name="shadow" class="cls-17" d="m2158.51,1282.44s55.74.95,99.63-7.87c33.68-6.77,73.28-18.23,73.28-18.23,0,0-4.51,26.72-31.18,41.29-32.61,17.8-138.31,42.22-138.65,30.76-.97-33.01-3.08-45.94-3.08-45.94Z"/>
  </g>
  <g id="eyeblow">
    <path class="cls-27" d="m2015.2,657.62c14.65.58,28.58,17.54,20.58,29.83-49.24,35.45-109.7,55.06-170.37,55.25-2.19-13.26,12.22-22.65,24.44-28.24,31.42-14.36,90.96-58.21,125.34-56.84Z"/>
    <path class="cls-28" d="m2324.64,751.04c13.31-.04,30.39-2.59,32.68-15.7,1.92-10.99-8.36-19.97-17.7-26.07-19.34-12.63-102.07-65.77-134.37-59.51-42.07,8.15,52.86,101.46,119.39,101.28Z"/>
  </g>
  <path id="nose" class="cls-5" d="m2099.8,984.73c-9.29,17.3-18.58,34.6-27.88,51.9-4.39,8.17-8.89,17.66-5.63,26.35,2.52,6.71,9.29,11.08,16.28,12.66s14.26.83,21.39.07"/>
  <g id="hair-2" data-name="hair">
    <path class="cls-14" d="m2351.98,396.82c74.29-18.53,155.62,4.04,215.77,51.41,60.15,47.37,100.08,117.37,119.68,191.38,19.6,74.01,19.97,152.03,10.89,228.06-3.49,29.18-8.52,58.76-22,84.87-20.9,73.63-25.25,151.91-12.63,227.4-58.1-71.25-89.03-162.2-103.69-252.96-14.66-90.76-20.26-183.41-45.8-271.73-25.54-88.32-74.57-174.54-154.23-220.42-42.19-17.92-53.19-23.37-53.19-23.37l45.2-14.63Z"/>
    <path class="cls-13" d="m2347.98,419.01c74.29-18.53,155.62,4.04,215.77,51.41,60.15,47.37,100.08,117.37,119.68,191.38,19.6,74.01,19.97,152.03,10.89,228.06-3.49,29.18-8.52,58.76-22,84.87-20.9,73.63-25.25,151.91-12.63,227.4-58.1-71.25-89.03-162.2-103.69-252.96-14.66-90.76-20.26-183.41-45.8-271.73-25.54-88.32-74.57-174.54-154.23-220.42-42.19-17.92-53.19-23.37-53.19-23.37l45.2-14.63Z"/>
    <path class="cls-14" d="m2522,1581.13c-11.71-27.98-5.12-60.27,5.89-88.53s26.35-55.12,32.48-84.83c9.96-48.26-5.37-97.58-13.07-146.25-7.7-48.67-5.11-104.97,31.23-138.24-12.74,124.6,72.46,202-56.54,457.84Z"/>
    <path class="cls-14" d="m2620,393.03c52.61,54.27,81.82,127.77,94.98,202.2,13.15,74.43,11.43,150.58,9.66,226.15,29.81-115.22,24.56-239.26-14.87-351.56-16.97-48.32-41.23-95.9-80.84-128.35-48.44-39.68-125.75-53.86-183.71-27.43,27.35,10.84,60.44,8.69,89.28,20.64,32.06,13.28,61.35,33.44,85.49,58.35Z"/>
    <path class="cls-14" d="m2759.65,1229.91c24.56,30.1,50.01,62.14,56.12,100.5,7.35,46.15-14.67,91.35-36.05,132.9-38.38,74.59-76.75,149.17-115.13,223.76-18-62.58,13.19-127.66,43.52-185.28,30.33-57.62,61.61-122.62,43.79-185.25-12.75-44.81-48.64-79.29-67.28-121.98-23.41-53.6-16.54-119.28,17.45-166.87-10.04,14.05-13.6,93.86-9.69,111.89,6.98,32.11,46.75,65.18,67.27,90.33Z"/>
    <path class="cls-14" d="m2023.57,1359.47c8.41,41.88,16.82,83.77,25.24,125.65-6.68-33.25,11.08-79.85,6.38-116.71-4.38-34.33-13.09-82.47-36.03-108.42-21.28,22.45-.94,72.83,4.41,99.49Z"/>
    <path class="cls-14" d="m2063.44,325.85c-55.67,19.13-99.29,64.42-128.37,115.61-29.08,51.19-45.35,108.47-61.36,165.11,1.06-61.04,12.45-122.86,41.31-176.66,28.86-53.8,76.48-99,134.76-117.18,35.46-11.06,122.81-18.83,142.15,22.42-41.31-18.04-84.83-24.3-128.49-9.3Z"/>
    <path class="cls-28" d="m2263.88,584.08c-.15,35.7-10.08,52.48-7.2,99.61,5.32,86.97,45.74,156.3,136.81,211,91.07,54.7,221.15,60.4,332.08,32.59-131.38-80.41-198.59-207.02-196.71-333.55.93-62.41,5.51-144.01-51.84-189.58-51.63-41.01-124.17-47.79-190.1-20.35-32.63,13.58-220.19,164.45-178.55,153.39,40.32-10.71,60.76-43.75,110.03-34.17,19.13,3.72,45.75,18.84,45.48,81.07Z"/>
    <path class="cls-28" d="m1634.2,885.95c-4.35-.37-5.69-6.11-1.97-8.4,31.95-19.61,132.96-88.04,199.75-205.86,80.23-141.52,136.77-299.15,259.57-274.57,122.8,24.58,86.34,96.62,86.34,96.62l-69.51,43.44s-86.75-89.91-120.97,26.62c-40.85,139.09-42.96,239.6-201.29,291.44-90.84,29.74-133.62,32.26-151.91,30.71Z"/>
  </g>
  <path id="mouth" class="cls-2" d="m2117.61,1158.38c61.38,25.97,138.2,9.48,183.53-39.38"/>
  <path class="cls-9" d="m2349.5,979.82c-2.45-5.42-6.09-10.22-10.65-14.04l-5.68-4.75c-3.6-3.85-11.1-2.44-13.06,2.45,9.8,5.44,19.6,10.89,29.4,16.33h0Z"/>
  <path class="cls-9" d="m2305.26,1002.96c-1.96-4.43-4.88-8.35-8.54-11.47l-4.55-3.88c-2.89-3.14-8.89-2-10.46,2,7.85,4.45,15.7,8.9,23.55,13.35h0Z"/>
  <path class="cls-9" d="m2255.07,1019.38c.74-4.79.4-9.66-.99-14.26l-1.74-5.72c-.73-4.21-6.41-6.48-9.89-3.97,4.21,7.98,8.41,15.97,12.62,23.95h0Z"/>
  <ellipse class="cls-24" cx="2259.4" cy="896.63" rx="104.29" ry="91.83" transform="translate(632.4 2702.66) rotate(-69.63)"/>
  <path class="cls-9" d="m2168.12,882c1.13-4.72,2.56-9.44,4.3-14.12,20.81-56.05,77.7-86.64,127.06-68.32,41.83,15.53,31.89,96.82,102.53,104.41-57.02-26.07-55.08-99.29-100.32-116.08-49.36-18.33-106.24,12.26-127.06,68.32-3.18,8.55-5.33,17.21-6.52,25.79Z"/>
  <ellipse class="cls-12" cx="2227.69" cy="914.03" rx="60.17" ry="80.51" transform="translate(-92.51 270.03) rotate(-6.8)"/>
  <path class="cls-20" d="m2359.97,846.62c-7.89-38.68-43.61-67.12-82.43-68.67-39.12-2.79-76.2,18.89-99.15,49.99,9.93-16.95,24.38-31.52,41.7-41.5,30.32-17.79,70.4-19.12,100.66-.52,21.15,13.08,36.8,35.73,39.21,60.69h0Z"/>
  <ellipse class="cls-24" cx="2281.1" cy="890.49" rx="20.13" ry="26.93" transform="translate(-89.35 276.18) rotate(-6.8)"/>
  <path class="cls-9" d="m2359.07,830.27c8.45-.32,16.75-3.83,22.87-9.67-.36,7.9-7.7,14.14-15.46,15.68-7.76,1.54-15.76-.59-23.22-3.22-2.2-.78-4.47-1.65-6.1-3.32-6.76-6.9,2.87-3.99,6-2.64,5.04,2.18,10.4,3.38,15.92,3.17Z"/>
  <path class="cls-9" d="m2319.9,761.55c.46,6.36-8.96,37.36-19.77,30.09-9.71-6.52,20.27-23.02,19.77-30.09Z"/>
  <ellipse class="cls-24" cx="1978.99" cy="879.58" rx="104.29" ry="91.83" transform="translate(558.71 2514.48) rotate(-72.98)"/>
  <path class="cls-9" d="m2076.04,874.39c-.85-4.78-2.01-9.57-3.47-14.35-17.5-57.18-72.5-91.04-122.85-75.63-42.67,13.06-37.5,94.79-108.46,98.24,58.44-22.69,60.79-95.9,106.93-110.02,50.34-15.41,105.35,18.45,122.85,75.63,2.67,8.73,4.31,17.49,5,26.13Z"/>
  <ellipse class="cls-12" cx="1948.34" cy="898.8" rx="60.17" ry="80.51" transform="translate(-127.87 357.3) rotate(-10.15)"/>
  <path class="cls-20" d="m1886.58,827.86c3.86-24.78,20.81-46.47,42.69-58.3,31.3-16.79,71.23-13.13,100.46,6.4,16.71,10.97,30.28,26.36,39.21,43.86-21.09-32.39-56.84-56.2-96.05-55.7-38.84-.73-76.17,25.58-86.3,63.73h0Z"/>
  <ellipse class="cls-24" cx="2000.29" cy="872.18" rx="20.13" ry="26.93" transform="translate(-122.37 366.04) rotate(-10.15)"/>
  <path class="cls-9" d="m1888.44,811.6c-8.42-.82-16.5-4.8-22.26-10.99-.1,7.91,6.86,14.56,14.51,16.56,7.66,1.99,15.77.33,23.37-1.86,2.25-.65,4.56-1.38,6.29-2.96,7.15-6.49-2.63-4.15-5.83-2.98-5.16,1.88-10.58,2.76-16.07,2.23Z"/>
  <path class="cls-9" d="m1931.55,745.29c-.83,6.32,6.76,37.82,17.97,31.2,10.07-5.95-18.89-24.16-17.97-31.2Z"/>
  <path id="hand" class="cls-6" d="m1153.07,1914.2c-34.37,11.54-110.7-24.58-144.05-38.81-33.39-14.24-105.55-81.46-118.81-68.2-20.88,20.88,75.43,85.8,71.95,92.12-3.93,7.13-145.88-110.13-162.61-80.13-19.87,35.63,145.64,99.42,137.3,113.66-5.5,9.38-176.01-114.34-190.99-91.29-16.43,25.28,179.45,118.36,175.01,127.59-6.35,13.19-154.88-100.98-166.96-79.26-14.32,25.73,144.11,97.81,140.5,106.52s-100.52-55.29-102.92-38.51c-4.54,31.76,103.98,75.39,129.54,76.67,54.44,2.72,136.77-3.83,232.03,17.24v-137.59Z"/>
  <path class="cls-8" d="m2431.58,1511.3l53.85,55.82c34.34,35.6,74.8,64.72,119.46,85.99l32.63,15.54c40.22,19.15,68.51,56.79,75.75,100.75,10.72,65.13,30.13,165.02,59.35,250.87,48.07,141.19,153.21,429.59,243.33,546.75,90.12,117.16,108.15,135.18,108.15,135.18h-353.59s-119.27-152.54-184.21-333.57c-52.92-147.53-87.06-414.45-87.06-414.45,0,0-12.02,270.37,15.02,438.6,27.04,168.23,66.09,309.42,66.09,309.42h-934.27s74.98-304.26,118.61-487.77c40.72-171.24,160.47-391,61.02-284.77-108.19,115.57-131.57,124.25-341.86,181.03-210.29,56.79-336.46,17.73-336.46,17.73v-222.3s162.22,15.02,333.46-75.1,342.47-237.43,342.47-237.43l200.48-144.31,407.77,62.04Z"/>
  <path class="cls-15" d="m2063.81,1459.48c13.9,9.59,112.11,86.26,159.66,87.3,58.07,1.28,198.22-44.25,201.58-42.64,0,0,12.78,13.01,8.41,15.71-27.22,16.82-112.82,52.45-210.8,42.56-91.85-9.28-208.37-105.1-202.65-104.91,0,0,8.67-22.25,43.8,1.98Z"/>
  <path class="cls-8" d="m2069.9,1401.4c5.22-3.37,12.08-2.67,16.51,1.7,20.91,20.57,75.53,60.09,135.54,67.77,61.19,7.83,133.67-15.94,165.34-28.04,7.44-2.84,15.85-.21,20.36,6.34l28.07,43.94c4.2,6.11,2.3,14.52-4.14,18.19-30.79,17.58-118.53,60.16-218.95,41.59-97.13-17.96-163.8-77.73-188.82-103.63-5.93-6.14-4.77-16.16,2.4-20.79l43.7-27.07Z"/>
  <path class="cls-25" d="m1169.66,2021.72c53.74,51.38,116.3,93.5,184.12,123.97,12.98,5.83,27.53,11.33,41.11,7.05,17.69-5.57,26.35-25.02,32.89-42.38,14.29-37.93,63.26-97.07,77.54-135-27.34,4.31-72.27,16.74-91.59-3.07-19.32-19.82-13.48-59.81-8.47-87.02-.41,2.23-114.12-.82-121.95.04-27.27,3.01-23.33,8.95-29.02,34.75-10.19,46.23-36.71,87.56-84.63,101.67Z"/>
  <path class="cls-21" d="m1198.05,1211.1c-15.46-45.09,26.97-166.87,159.8-146.28,114.34,17.72,110.22,113.24,106.37,164.69-2.36,31.57,84.34,74.67,97.5,103.47,27.07,59.26,73.82,81.3,125.06,118.15-60.7,44.28-276.71-161.62-307.75-204.75-34.54-47.99-137.07-74.86-180.99-35.27Z"/>
  <path class="cls-6" d="m1601.76,1433.68c17.29,60.74,26.15,133.69,27.58,196.83,1.46,64.67,1.52,103.09-26.57,161.35-30.53,63.32-113.47,123.76-182.09,139-68.62,15.24-144.2,18.39-207.81-11.52-48.71-22.9-88.48-65.95-132.65-103.36-24.15-20.45-50.59-38.03-75.89-57.04-30.68-23.06-65.13-57.92-51.2-93.69,11.93-30.62,55.01-38.05,84.35-23.26,29.34,14.79,47.94,44.22,65.07,72.26-65.82-60.15-83.47-163.21-51.58-246.47,31.9-83.26,107.38-145.69,192.22-173.13,70.19-22.7,160.24-28.04,232.4-9.1,63.02,16.54,109.52,89.66,126.17,148.12Z"/>
  <path class="cls-22" d="m1465.08,1216.52c.95,20.17,52.32,75.45-119.12,25.58-82.07-23.88-156.83-46.72-149.67-65.61,3.81-10.05,75.94-20.58,160.34-7.07,84.4,13.51,108.1,39.68,108.45,47.1Z"/>
  <path class="cls-17" d="m1069.13,1480.27c1.56,52.9,22.77,104.99,58.61,143.92,1.88-54.67,3.76-109.34,5.64-164,21.32,34.98,42.64,69.95,63.96,104.93-10.57-65.36-12.19-107.03,15.07-167.37-9.7,45.24,9.21,67.34,33.18,106.92l16.16-93.63c17.68,21.63,35.36,43.27,53.04,64.9l-6.59-101.53c19.56,24.37,39.12,48.75,58.68,73.12,3.31-36.53,6.62-73.07,9.93-109.6,26.13,21.43,52.26,42.86,78.39,64.29-7.37-27-14.74-53.99-22.11-80.99,74.44,22.26,138.69,76.61,172.97,146.34-1.03-111.13-76.91-215.65-179.21-259.08-102.3-43.42-243.37-29.42-336.74,30.86s-156.69,156.33-179.66,265.07c-12.75,60.36,5.05,134,37.56,186.43,20.15,32.49,149.6,108.29,152.95,41.52,1.67-33.17-28.71-84.6-33.49-120.44-5.83-43.65-5.36-88.18,1.66-131.66Z"/>
  <path class="cls-21" d="m1065.83,1466.46c1.56,52.9,22.77,104.99,58.61,143.92,1.88-54.67,3.76-109.34,5.64-164,21.32,34.98,42.64,69.95,63.96,104.93-10.57-65.36-12.19-107.03,15.07-167.37-9.7,45.24,9.21,67.34,33.18,106.92,5.39-31.21,10.77-62.42,16.16-93.63l53.04,64.9-6.59-101.53c19.56,24.37,39.12,48.75,58.68,73.12,3.31-36.53,6.62-73.07,9.93-109.6,26.13,21.43,52.26,42.86,78.39,64.29-7.37-27-14.74-53.99-22.11-80.99,74.44,22.26,138.69,76.61,172.97,146.34-1.03-111.13-76.91-215.65-179.21-259.08-102.3-43.42-243.37-29.42-336.74,30.86s-156.69,156.33-179.66,265.07c-12.75,60.36,5.05,134,37.56,186.43,20.15,32.49,149.6,108.29,152.95,41.52,1.67-33.17-28.71-84.6-33.49-120.44-5.83-43.65-5.36-88.18,1.66-131.66Z"/>
  <g>
    <ellipse class="cls-24" cx="1499.97" cy="1526.74" rx="75.22" ry="91.96" transform="translate(-86.68 90.29) rotate(-3.35)"/>
    <ellipse class="cls-7" cx="1517.45" cy="1545.99" rx="51.97" ry="63.54" transform="translate(-87.77 91.34) rotate(-3.35)"/>
    <ellipse class="cls-24" cx="1482.31" cy="1511.8" rx="16.75" ry="18.07" transform="translate(-85.83 89.23) rotate(-3.35)"/>
  </g>
  <g>
    <ellipse class="cls-24" cx="1274.91" cy="1613.09" rx="78.41" ry="99.18" transform="translate(-199.99 180.56) rotate(-7.51)"/>
    <ellipse class="cls-7" cx="1294.64" cy="1632.5" rx="54.18" ry="68.52" transform="translate(-202.36 183.31) rotate(-7.51)"/>
    <ellipse class="cls-24" cx="1255.35" cy="1598.33" rx="17.46" ry="19.49" transform="translate(-198.23 177.88) rotate(-7.51)"/>
  </g>
  <path class="cls-17" d="m1453.3,1654.71c7.04,6.16,14.13,12.52,18.94,20.55s7.07,18.09,3.8,26.86-13.11,15.26-22.13,12.79c13.08-5.53,19.93-22.49,14.35-35.55-3.84-9-12.11-15.14-19.6-21.44-6.16-5.18-13.97-12.19-15.16-20.55,4.46-.63,15.77,13.82,19.8,17.34Z"/>
  <path class="cls-5" d="m1428.92,1630.52c2.16,13.19,13.85,22.31,24.07,30.91s20.62,20.21,18.72,33.43c-2.1,14.55-22.01,22.87-33.83,14.14"/>
  <path class="cls-21" d="m949.94,1331.97c-43.98-20.71-91.14-24.8-131.67-19.71-158.77,19.92-186.6,146.95-185,180.17,5.9,122.88,108.34,186.65,135.63,219.66,16.98,20.53,27.44,36.19,22.78,62.42-4.67,26.23-13.67,61.26-29.52,82.67,63.46-6.92,163.43-106.92,160.72-170.69-4.27-100.22-97.61-117.55-87.61-156.02,8.84-33.99,66.67.48,82.93-1.36s23.31-96.26,25.74-112.82,48.02-64.53,6.01-84.31Z"/>
  <path class="cls-22" d="m922.38,1436.02c-17.46,55.54-18.14,66.17-19.38,90.32-11.25-3.52-7.01-38.08,10.98-93.45,17.99-55.37,44.37-86.18,50.79-84.1-8.13,17.02-31.3,51.96-42.39,87.23Z"/>
  <g>
    <path class="cls-26" d="m1466.96,1775.05c3.7,6.06-12.16,64.39-54,64.5-34.48.09-67.21-67.01-56.19-67.23,26.55-.52,106.78-2.85,110.19,2.73Z"/>
    <path class="cls-16" d="m1461.36,1777.54c3.26,5.33-10.7,56.68-47.53,56.78-30.35.08-59.16-58.99-49.46-59.17,23.37-.45,93.99-2.51,96.99,2.4Z"/>
    <path class="cls-24" d="m1420.18,1802.74c14.88.5,29.42-13,33.89-27.2-8.17-1.56-60.24-1.01-67.76-.86-1.2,9.5,5.37,16.28,10.04,20.43,5.93,5.28,15.85,7.36,23.83,7.62Z"/>
  </g>
  <path class="cls-6" d="m1188.55,2031.31c45.62,43.62,98.74,79.39,156.33,105.25,11.02,4.95,23.38,9.62,34.9,5.99,15.02-4.73,22.37-21.25,27.92-35.98,12.13-32.21,53.71-82.42,65.84-114.62-23.21,3.66-61.36,14.22-77.76-2.61-16.4-16.82-11.44-50.78-7.19-73.89-.35,1.89-96.89-.7-103.54.04-23.16,2.55-19.81,7.6-24.64,29.5-8.65,39.25-31.17,74.34-71.85,86.33Z"/>
  <path class="cls-6" d="m893.88,2413.68s-24.41,147.06-15.1,223.18,18,114.82,18,114.82l124.89-.18,39.29-111.6v-192.11l-130.19-54.5-36.89,20.39Z"/>
  <path class="cls-25" d="m1706.73,2277.55c8.52-.46,8.92,104.77,115.63,20.36,94.35-74.64,138.08-95.85,228-175.07,5.35-33.13,22.21-61.46,27.56-94.59,2.41-14.93,5.83-31.53,18.29-40.11,17.51-12.06,24.74,53.29,19.11,87.16-1.42,8.54,5.82,21.33,13.35,17.06,52.98-30.03,181.59-132.15,197.56-114.16,35.83,40.36-125.77,106.63-120.63,118.84,2.69,6.39,191.32-70.22,198.93-29.5,8.09,43.3-190.16,59.72-189.23,68.47.77,7.3,171.17-38.96,174.74-5.71,3.89,36.27-158.96,43.88-156.46,47.09,11.46,14.74,114.14-19.44,114,28.5-.1,31.86-154.12,18.16-225.71,40.9-50.85,16.15-89.32,57.03-125.39,96.34-62.51,68.13-125.02,136.25-187.53,204.38-29.12,31.74-65.7,50.06-107.85,41.18-38.34-8.08-56.12-67.52-66.86-105.2-12.43-43.6-22-56.78-3.4-98.12,18.6-41.34,65.07-107.23,75.91-107.81Z"/>
  <path class="cls-6" d="m1723.85,2265.79c8.24-.44,8.63,101.3,111.8,19.68,91.23-72.17,133.5-92.68,220.45-169.27,5.17-32.03,21.47-59.42,26.65-91.45,2.33-14.44,5.64-30.48,17.68-38.78,16.93-11.66,23.92,51.52,18.47,84.28-1.37,8.26,5.63,20.63,12.91,16.5,51.22-29.04,175.58-127.78,191.02-110.38,34.64,39.03-121.6,103.1-116.64,114.9,2.6,6.18,184.99-67.89,192.34-28.53,7.82,41.87-183.86,57.74-182.97,66.2.75,7.06,165.5-37.67,168.95-5.52,3.76,35.07-153.69,42.43-151.28,45.53,11.08,14.25,110.36-18.8,110.22,27.56-.09,30.81-149.01,17.56-218.24,39.54-49.16,15.61-86.36,55.14-121.23,93.15-60.44,65.87-120.88,131.74-181.32,197.61-28.16,30.68-64.53,64.23-105.28,55.64-37.07-7.81-57.88-47.22-68.27-83.66-12.02-42.15-16.65-88.79,1.33-128.77,17.98-39.97,62.92-103.68,73.39-104.24Z"/>
  <path class="cls-10" d="m1078.63,2077.36c-68.22,12.24-92.11,35.99-144.94,77.74-35.02,63.84-46.17,184.83-54.91,253.58,61.51,20.27,129.23,44.23,190.74,64.49,12.15-69.57,17.6-112.73,31.85-194.46,10.58-60.68,36.72-121.12,76.44-167.98-24.85-27.13-62.98-39.87-99.19-33.37Z"/>
  <path class="cls-10" d="m1598.06,2056.55c24.8,21.53,41.9,50.36,58.57,78.65,21.71,36.85,43.42,73.69,65.12,110.54,4.88,8.29,9.9,17.01,10.34,26.62.52,11.43-5.5,22.05-11.65,31.7-25.93,40.73-57.66,77.76-93.94,109.62-11.03-51.93-22.12-104.07-40.48-153.87-18.36-49.81-44.4-97.57-81.91-135.12-12.56-12.57-27.13-25.34-30.13-42.86-3.73-21.83,16.15-58.95,39.21-61.78,27.75-3.41,65.1,19.35,84.86,36.51Z"/>
  <path class="cls-10" d="m1028.3,2478.34c0-93.64,82.22-328.41,94.13-350.7,11.91-22.3,105.11-40.61,129.05-35.51,46.23,9.85,238.07-7.71,279.85,14.41,59.21,31.35,82.42,106.22,102.08,170.27,8.07,26.28,12.26,53.56,16.44,80.73,6.48,42.19,12.96,84.37,19.43,126.56,10.91,71.08,21.85,142.39,23.81,214.28-206.78,6.75-660.27,56.64-671.4,53.12s6.62-199.84,6.62-273.16Z"/>
  <path class="cls-11" d="m1362.14,2101.94c5.66,2.83,11.74,5.27,18.37,7.25,39.37,11.75,112.31,48.88,125.01,92.83-19.51-67.53-14.52-141.82,13.59-206.21,1.87-4.28-1.35-9.05-6.02-8.95l-117.32,2.48c-11.44,49.67-13.5,93.07-54.47,125.57-21.06,16.71-39.19,34.38-51.66,58.6-6.89,13.37-25.48,54.14-16.84,69.11-39.29-68.05-103.77-121.17-178.08-146.7-16.49-5.66-37.58-16.74-33.17-33.61,2.69-10.27,13.94-15.35,23.89-19.05,29.67-11.03,59.41-21.88,89.01-33.1,17.87-6.77,37.45-17.72,57.05-12.75,23.58,5.98,44.23,32.18,61.78,47.68,24.29,21.45,41.95,43.44,68.85,56.86Z"/>
  <path class="cls-19" d="m1362.14,2091.46c5.66,2.83,11.74,5.27,18.37,7.25,39.37,11.75,112.31,48.88,125.01,92.83-19.51-67.53-14.52-141.82,13.59-206.21,1.87-4.28-1.35-9.05-6.02-8.95l-117.32,2.48c-11.44,49.67-13.5,93.07-54.47,125.57-21.06,16.71-39.19,34.38-51.66,58.6-6.89,13.37-25.48,54.14-16.84,69.11-39.29-68.05-103.77-121.17-178.08-146.7-16.49-5.66-37.58-16.74-33.17-33.61,2.69-10.27,13.94-15.35,23.89-19.05,29.67-11.03,59.41-21.88,89.01-33.1,17.87-6.77,37.45-17.72,57.05-12.75,23.58,5.98,44.23,32.18,61.78,47.68,24.29,21.45,41.95,43.44,68.85,56.86Z"/>
  <path class="cls-11" d="m1066.33,2291.29c-9.34,25.71-25.13,46.97-31.58,74.58-6.08,26.03-9.28,55.45-4.45,81.93,6.96-6.6,5.27-24.56,6.44-33.84,1.72-13.62,3.93-27.17,6.62-40.63,5.58-27.87,13.27-55.33,22.97-82.05Z"/>
  <path class="cls-11" d="m1585.54,2228.29c26.25,15.09,44.04,42,54.11,70.56,8.78,24.93,13.02,51.89,15.04,78.17-9.95-24.64-16.29-50.56-27.37-74.98-8.19-18.05-24.1-63.59-41.78-73.75Z"/>
  <path class="cls-3" d="m1361.23,2093.93c26.24,89.61,33.75,184.65,21.9,277.27"/>
  <path class="cls-18" d="m2164.02,2017.28c45.6,9.53,93.07-10.2,129.27-39.52,23.25-18.83,44.4-44.62,44.36-74.54-.03-22.07-11.69-42.52-25.64-59.63-44.56-54.67-144.83-92.98-198.12-29.61-56.69,67.43-50.46,182.27,50.13,203.3Z"/>
  <path class="cls-23" d="m2153.74,1910.7c-.49.91-.76,1.91-.79,2.94-.12,4-.15,6.65-4.43,7.33-1.59.25-3.23.14-4.76-.41-5.1-1.84-8.03-8.2-6.12-13.27.57-1.52,1.55-2.84,2.78-3.89,3.35-2.87,10.85-4.08,14.85-1.84,1.44.81,1.98,2.63,1.19,4.08l-2.71,5.06Z"/>
  <path class="cls-23" d="m2214.9,1949.71c1.03.07,2.06-.1,3-.5,3.7-1.54,6.12-2.61,8.5,1.02.88,1.35,1.46,2.89,1.58,4.51.43,5.41-4.16,10.7-9.57,11.05-1.62.1-3.23-.24-4.69-.92-4-1.87-8.19-8.21-7.79-12.77.14-1.65,1.58-2.88,3.23-2.77l5.73.39Z"/>
  <path class="cls-23" d="m2170.87,1837.53c.07,5.02,5.48,13.44,10.25,14.99,5.02,1.62,10.83-1.8,12.62-6.77s1.28-12.88-3.72-14.55c-11.51-3.85-19.15,6.34-19.15,6.34Z"/>
  <path class="cls-23" d="m2259.12,1878.88c.85-3.34,5.26-4.28,7.27-1.48,3.15,4.37,3.01,12.66.89,15.26-3.06,3.75-9.05,4.65-13.08,1.98-3.62-2.4.66-6.79,3.2-10.76.51-.8.88-1.69,1.11-2.61l.61-2.39Z"/>
  <path class="cls-6" d="m1050.64,1796.58c-27.48-15.7-57.7-29.74-82.99-48.76-30.68-23.06-64.73-81.44-46.69-115.32,30.8-57.85,133.34-18.3,148.67,10.77,30.27,57.43,38.63,186.21-18.98,153.31Z"/>
  <path class="cls-17" d="m980.36,1630.29c-18.4,2.02-34.77,16.49-39.03,34.5-4.26,18.01,3.9,38.29,19.45,48.33-9.22-11.79-9.04-29.45-1.11-42.15,7.93-12.69,22.54-20.42,37.44-21.85,14.91-1.44,26.56,4.89,40.05,7.98-7.43-17.83-39.12-28.74-56.8-26.81Z"/>
  <path class="cls-17" d="m999.08,1721.05c8.92,2.16,18.69.59,26.49-4.25,8.09-5.01,26.59-38.83,9.57-34.85-4.79,1.12-15.78,13.46-19.63,16.8-7.06,6.13-13.87,13.01-16.43,22.3Z"/>
  <path class="cls-17" d="m1072.07,1721.48c-.8-3.52-1.72-7.27-4.4-9.7s-7.7-2.52-9.33.7c-1.31,2.59.15,5.67,1.6,8.2,4.46,7.82,8.57,16.13,13.7,23.5,5.38-4.14-.28-17.01-1.57-22.7Z"/>
  <path class="cls-14" d="m1323.92,1084.6c-12.95,19.12-25.89,38.24-38.84,57.36-4.69,6.93-12.37,12.35-16.54,2.65-2.02-4.68,8.47-21.63,11.07-25.81,5.04-8.11,11.48-15.35,19.03-21.2,5.15-3.99,22.45-8.83,25.28-13.01Z"/>
  <path class="cls-14" d="m1397.32,1163.92c8.08-12.71,9.41-29.46,3.44-43.29-4.55-10.54-13.43-19.91-24.25-23.45-1.27,14.45,29.37,53.25,20.8,66.73Z"/>
  <path class="cls-4" d="m1070.48,1310.2c-17.83,41.14-24.25,87.16-18.36,131.61"/>
  <path class="cls-4" d="m1132.22,1259.32c-9.38,41.67-7.81,85.76,4.53,126.65"/>
  <path class="cls-4" d="m1188.14,1232.53c38.84,7.74,73.68,33.57,92.36,68.48"/>
  <path class="cls-4" d="m1237.99,1206.82c68.95-5.76,139.79,15.33,194.35,57.86"/>
  <path class="cls-1" d="m865.39,1355.14c-41.6,9.28-83.35,24.65-113.95,54.32-30.6,29.67-47.69,76.18-33.29,116.3,13.68,38.1,50.83,61.84,76.21,93.38,35.71,44.38,47.21,107.11,29.57,161.27"/>
  <path class="cls-1" d="m881.33,1450.14c-26.25-8.12-57.08,1.77-73.69,23.65-16.62,21.88-17.87,54.24-3,77.34,9.96,15.48,25.72,26.17,38.21,39.69,33.07,35.8,40.14,93.13,16.76,135.89"/>
</svg>